<svg width="392" height="87" viewBox="0 0 392 87" fill="none" xmlns="http://www.w3.org/2000/svg">
<path d="M26.5904 41V34.952H34.0784V41H38.5904V24.92H34.0784V30.896H26.5904V24.92H22.0784V41H26.5904ZM44.5435 27.8V24.92H40.0315V27.8H44.5435ZM44.5435 41V28.904H40.0315V41H44.5435ZM51.3606 39.656C54.0246 39.656 55.2966 38.48 55.6086 36.728H55.8486V39.272C55.8486 41.312 55.3926 41.6 53.4486 41.6C51.0966 41.6 50.9766 41.36 50.9766 40.376H46.4646C46.4646 43.544 48.9126 45.32 53.1366 45.32C57.7926 45.32 60.3606 43.28 60.3606 38.96V28.904H56.1366V31.736H55.8966C55.5606 29.648 53.9286 28.664 51.4806 28.664C47.9046 28.664 45.7446 30.728 45.7446 34.136C45.7446 37.592 47.7606 39.656 51.3606 39.656ZM50.3046 34.136C50.3046 32.96 50.8806 32.552 52.9926 32.552C55.0086 32.552 55.8486 32.816 55.8486 34.112V34.28C55.8486 35.552 55.0086 35.792 52.9926 35.792C50.8806 35.792 50.3046 35.336 50.3046 34.136ZM66.3169 41V34.76C66.3169 33.2 66.8209 32.696 68.9089 32.696C70.9729 32.696 71.6209 33.224 71.6209 34.904V41H76.1329V33.392C76.1329 30.704 74.5969 28.664 71.3809 28.664C68.2849 28.664 66.9409 30.536 66.5569 32.576H66.3169V24.92H61.8049V41H66.3169ZM86.1402 41.24C88.9962 41.24 90.3402 39.896 90.7002 37.88H90.9402V45.08H95.4522V28.904H91.2282V32.168H90.9882C90.6042 29.768 89.1642 28.664 86.3322 28.664C82.6362 28.664 80.5962 31.04 80.5962 34.952C80.5962 38.888 82.5882 41.24 86.1402 41.24ZM85.1562 34.952C85.1562 33.344 85.8762 32.792 87.9642 32.792C89.9802 32.792 90.9402 33.176 90.9402 34.928V35.096C90.9402 36.8 89.9802 37.136 87.9642 37.136C85.8762 37.136 85.1562 36.56 85.1562 34.952ZM101.859 41.24C105.147 41.24 106.491 39.344 106.755 37.328H106.995V41H111.219V28.904H106.707V35.144C106.707 36.704 106.203 37.208 104.115 37.208C102.051 37.208 101.403 36.68 101.403 35V28.904H96.8909V36.656C96.8909 39.272 98.4749 41.24 101.859 41.24ZM116.483 41.24C119.099 41.24 120.587 40.16 121.043 38.456H121.283V41H125.507V34.112C125.507 30.728 123.467 28.664 119.243 28.664C115.139 28.664 112.451 30.728 112.451 33.944V33.992H116.963V33.896C116.963 32.888 117.419 32.6 118.907 32.6C120.515 32.6 121.043 32.792 121.043 34.016V34.256L116.123 34.736C113.387 35 112.211 36.224 112.211 37.928C112.211 39.992 113.747 41.24 116.483 41.24ZM116.747 37.64C116.747 37.376 116.915 37.232 117.323 37.184L121.019 36.752C120.899 37.832 120.011 38.096 117.827 38.096C117.131 38.096 116.747 38.024 116.747 37.64ZM131.356 41V24.92H126.844V41H131.356ZM137.309 27.8V24.92H132.797V27.8H137.309ZM137.309 41V28.904H132.797V41H137.309ZM147.798 41V36.944H145.638C144.606 36.944 144.318 36.704 144.318 35.744V32.6H147.798V28.904H144.318V26.816H139.806V28.904H138.03V32.6H139.806V36.392C139.806 39.536 141.606 41 144.63 41H147.798ZM151.539 45.08C155.067 45.08 156.915 44.336 158.211 41.48L163.947 28.904H158.907L157.107 33.608L156.315 36.44H156.003L155.139 33.656L153.051 28.904H147.915L153.699 40.856C153.507 40.952 153.219 41 152.859 41H149.355V45.08H151.539ZM177.893 41L183.317 28.904H178.373L175.325 36.608H175.013L171.989 28.904H166.949L172.325 41H177.893ZM188.426 27.8V24.92H183.914V27.8H188.426ZM188.426 41V28.904H183.914V41H188.426ZM195.363 41.24C198.195 41.24 199.635 40.136 200.019 37.736H200.259V41H204.483V24.92H199.971V32.024H199.731C199.371 30.008 198.027 28.664 195.171 28.664C191.619 28.664 189.627 31.016 189.627 34.952C189.627 38.864 191.667 41.24 195.363 41.24ZM194.187 34.952C194.187 33.344 194.907 32.768 196.995 32.768C199.011 32.768 199.971 33.104 199.971 34.808V34.976C199.971 36.728 199.011 37.112 196.995 37.112C194.907 37.112 194.187 36.56 194.187 34.952ZM212.666 41.24C216.746 41.24 219.314 39.344 219.314 36.656V36.368H214.802V36.632C214.802 37.352 214.322 37.664 212.498 37.664C210.578 37.664 209.93 37.256 209.858 35.792H219.338C219.386 35.36 219.41 35.048 219.41 34.64C219.41 30.752 216.746 28.664 212.57 28.664C208.538 28.664 205.682 31.016 205.682 34.952C205.682 39.488 208.562 41.24 212.666 41.24ZM212.474 32.12C214.154 32.12 214.874 32.48 215.042 33.512H209.93C210.122 32.48 210.818 32.12 212.474 32.12ZM227.313 41.24C231.513 41.24 234.369 38.864 234.369 34.952C234.369 31.016 231.513 28.664 227.313 28.664C223.113 28.664 220.257 31.016 220.257 34.952C220.257 38.864 223.113 41.24 227.313 41.24ZM227.313 37.256C225.273 37.256 224.721 36.704 224.721 34.952C224.721 33.2 225.273 32.624 227.313 32.624C229.353 32.624 229.905 33.2 229.905 34.952C229.905 36.704 229.353 37.256 227.313 37.256ZM237.325 44.984C239.845 44.984 241.309 43.784 241.309 41.312V36.392H235.453V41H238.021V41.336C238.021 42.032 237.757 42.2 237.181 42.2H235.669V44.984H237.325ZM250.006 41.24C252.622 41.24 254.11 40.16 254.566 38.456H254.806V41H259.03V34.112C259.03 30.728 256.99 28.664 252.766 28.664C248.662 28.664 245.974 30.728 245.974 33.944V33.992H250.486V33.896C250.486 32.888 250.942 32.6 252.43 32.6C254.038 32.6 254.566 32.792 254.566 34.016V34.256L249.646 34.736C246.91 35 245.734 36.224 245.734 37.928C245.734 39.992 247.27 41.24 250.006 41.24ZM250.27 37.64C250.27 37.376 250.438 37.232 250.846 37.184L254.542 36.752C254.422 37.832 253.534 38.096 251.35 38.096C250.654 38.096 250.27 38.024 250.27 37.64ZM265.335 41.24C268.623 41.24 269.967 39.344 270.231 37.328H270.471V41H274.695V28.904H270.183V35.144C270.183 36.704 269.679 37.208 267.591 37.208C265.527 37.208 264.879 36.68 264.879 35V28.904H260.367V36.656C260.367 39.272 261.951 41.24 265.335 41.24ZM281.543 41.24C284.375 41.24 285.815 40.136 286.199 37.736H286.439V41H290.663V24.92H286.151V32.024H285.911C285.551 30.008 284.207 28.664 281.351 28.664C277.799 28.664 275.807 31.016 275.807 34.952C275.807 38.864 277.847 41.24 281.543 41.24ZM280.367 34.952C280.367 33.344 281.087 32.768 283.175 32.768C285.191 32.768 286.151 33.104 286.151 34.808V34.976C286.151 36.728 285.191 37.112 283.175 37.112C281.087 37.112 280.367 36.56 280.367 34.952ZM296.614 27.8V24.92H292.102V27.8H296.614ZM296.614 41V28.904H292.102V41H296.614ZM304.751 41.24C308.951 41.24 311.807 38.864 311.807 34.952C311.807 31.016 308.951 28.664 304.751 28.664C300.551 28.664 297.695 31.016 297.695 34.952C297.695 38.864 300.551 41.24 304.751 41.24ZM304.751 37.256C302.711 37.256 302.159 36.704 302.159 34.952C302.159 33.2 302.711 32.624 304.751 32.624C306.791 32.624 307.343 33.2 307.343 34.952C307.343 36.704 306.791 37.256 304.751 37.256ZM323.682 41.24C329.562 41.24 331.266 38.816 331.266 35.048V34.64H333.594V30.944H331.266V28.904H326.826V30.944H322.65C321.762 30.944 321.258 30.824 321.258 29.84C321.258 28.808 321.738 28.688 322.77 28.688H325.938V24.584H323.418C319.194 24.584 316.746 25.856 316.746 28.904C316.746 30.68 317.826 32.12 320.034 32.312V32.624C317.658 32.792 316.002 34.016 316.002 36.488C316.002 39.824 318.762 41.24 323.682 41.24ZM323.85 37.136C321.138 37.136 320.586 36.848 320.586 35.888C320.586 34.832 321.138 34.64 322.05 34.64H326.826V35.288C326.826 36.992 326.466 37.136 323.85 37.136ZM342.668 41V24.92H338.156V41H342.668ZM348.622 27.8V24.92H344.11V27.8H348.622ZM348.622 41V28.904H344.11V41H348.622ZM360.167 41L365.591 28.904H360.647L357.599 36.608H357.287L354.263 28.904H349.223L354.599 41H360.167ZM372.932 41.24C377.012 41.24 379.58 39.344 379.58 36.656V36.368H375.068V36.632C375.068 37.352 374.588 37.664 372.764 37.664C370.844 37.664 370.196 37.256 370.124 35.792H379.604C379.652 35.36 379.676 35.048 379.676 34.64C379.676 30.752 377.012 28.664 372.836 28.664C368.804 28.664 365.948 31.016 365.948 34.952C365.948 39.488 368.828 41.24 372.932 41.24ZM372.74 32.12C374.42 32.12 375.14 32.48 375.308 33.512H370.196C370.388 32.48 371.084 32.12 372.74 32.12ZM162.652 77.24C166.78 77.24 169.42 75.104 169.42 71.888V71.48H164.932V71.696C164.932 72.944 164.02 73.184 162.556 73.184C160.9 73.184 160.108 72.824 160.108 70.952C160.108 69.056 160.9 68.696 162.556 68.696C164.02 68.696 164.932 68.96 164.932 70.208V70.4H169.42V70.016C169.42 66.776 166.78 64.664 162.652 64.664C158.356 64.664 155.62 67.016 155.62 70.952C155.62 74.864 158.356 77.24 162.652 77.24ZM175.137 77V60.92H170.625V77H175.137ZM180.49 77.24C183.106 77.24 184.594 76.16 185.05 74.456H185.29V77H189.514V70.112C189.514 66.728 187.474 64.664 183.25 64.664C179.146 64.664 176.458 66.728 176.458 69.944V69.992H180.97V69.896C180.97 68.888 181.426 68.6 182.914 68.6C184.522 68.6 185.05 68.792 185.05 70.016V70.256L180.13 70.736C177.394 71 176.218 72.224 176.218 73.928C176.218 75.992 177.754 77.24 180.49 77.24ZM180.754 73.64C180.754 73.376 180.922 73.232 181.33 73.184L185.026 72.752C184.906 73.832 184.018 74.096 181.834 74.096C181.138 74.096 180.754 74.024 180.754 73.64ZM197.356 77.24C201.364 77.24 203.62 75.608 203.62 73.352C203.62 71.312 202.492 70.136 198.964 69.752L196.564 69.488C195.148 69.344 194.956 69.176 194.956 68.84C194.956 68.384 195.148 68.192 196.612 68.192C198.436 68.192 198.676 68.48 198.676 69.104V69.248H203.188V69.152C203.188 66.176 200.956 64.664 196.756 64.664C192.22 64.664 190.516 66.512 190.516 68.648C190.516 70.688 191.86 71.864 194.356 72.128L197.86 72.512C198.988 72.632 199.18 72.728 199.18 73.112C199.18 73.52 198.94 73.688 197.38 73.688C195.748 73.688 195.316 73.616 195.316 72.944V72.704H190.804V72.8C190.804 75.584 193.084 77.24 197.356 77.24ZM211.207 77.24C215.215 77.24 217.471 75.608 217.471 73.352C217.471 71.312 216.343 70.136 212.815 69.752L210.415 69.488C208.999 69.344 208.807 69.176 208.807 68.84C208.807 68.384 208.999 68.192 210.463 68.192C212.287 68.192 212.527 68.48 212.527 69.104V69.248H217.039V69.152C217.039 66.176 214.807 64.664 210.607 64.664C206.071 64.664 204.367 66.512 204.367 68.648C204.367 70.688 205.711 71.864 208.207 72.128L211.711 72.512C212.839 72.632 213.031 72.728 213.031 73.112C213.031 73.52 212.791 73.688 211.231 73.688C209.599 73.688 209.167 73.616 209.167 72.944V72.704H204.655V72.8C204.655 75.584 206.935 77.24 211.207 77.24ZM225.299 77.24C229.379 77.24 231.947 75.344 231.947 72.656V72.368H227.435V72.632C227.435 73.352 226.955 73.664 225.131 73.664C223.211 73.664 222.563 73.256 222.491 71.792H231.971C232.019 71.36 232.043 71.048 232.043 70.64C232.043 66.752 229.379 64.664 225.203 64.664C221.171 64.664 218.315 67.016 218.315 70.952C218.315 75.488 221.195 77.24 225.299 77.24ZM225.107 68.12C226.787 68.12 227.507 68.48 227.675 69.512H222.563C222.755 68.48 223.451 68.12 225.107 68.12ZM239.754 77.24C243.762 77.24 246.018 75.608 246.018 73.352C246.018 71.312 244.89 70.136 241.362 69.752L238.962 69.488C237.546 69.344 237.354 69.176 237.354 68.84C237.354 68.384 237.546 68.192 239.01 68.192C240.834 68.192 241.074 68.48 241.074 69.104V69.248H245.586V69.152C245.586 66.176 243.354 64.664 239.154 64.664C234.618 64.664 232.914 66.512 232.914 68.648C232.914 70.688 234.258 71.864 236.754 72.128L240.258 72.512C241.386 72.632 241.578 72.728 241.578 73.112C241.578 73.52 241.338 73.688 239.778 73.688C238.146 73.688 237.714 73.616 237.714 72.944V72.704H233.202V72.8C233.202 75.584 235.482 77.24 239.754 77.24Z" fill="#000F24"/>
<path fill-rule="evenodd" clip-rule="evenodd" d="M26.501 3.2608C26.4541 3.49232 26.4319 3.60198 26.4012 3.75219L26.2506 3.8513C26.1729 4.15832 26.1014 4.45562 26.0221 4.7506C25.9553 4.99956 25.8649 5.24328 25.8117 5.4947C25.7526 5.77479 25.6614 6.04548 25.6146 6.33192C25.5726 6.59043 25.6022 6.87946 25.4672 7.11169C25.3097 7.38136 25.406 7.6829 25.3055 7.95837C25.2125 8.21274 25.1672 8.48436 25.1012 8.74775C25.1071 8.74902 25.1474 8.75717 25.1973 8.76759C25.1036 9.578 24.9893 10.3899 25.1413 11.2518C25.128 11.2701 25.0834 11.3321 25.0286 11.4083C25.0838 11.4263 25.1341 11.4427 25.186 11.4595C25.2316 11.9289 25.3073 12.4041 25.3385 12.8728C25.3767 13.45 25.5494 14.0112 25.4998 14.6007C25.4749 14.8968 25.5458 15.2192 25.6518 15.5C25.7169 15.6719 25.6004 15.7061 25.5587 15.8133C25.622 15.8428 25.6852 15.8726 25.7701 15.9122C25.806 16.2843 25.8433 16.6673 25.8815 17.0619C25.7848 17.0465 25.7262 17.037 25.6337 17.0224C25.5655 17.1959 25.3576 17.3261 25.5156 17.6815C25.3573 17.5605 25.2593 17.4857 25.1388 17.3936C25.099 17.6323 25.0833 17.7261 25.0635 17.8443C25.1374 17.8793 25.2068 17.9119 25.2831 17.9478C25.2904 18.0583 25.2991 18.1851 25.3073 18.3073C25.2604 18.3285 25.2111 18.3683 25.1907 18.3572C25.0406 18.2728 24.8961 18.1782 24.7509 18.0875C24.4756 18.2041 24.6562 18.43 24.6208 18.6025C24.5801 18.5941 24.5396 18.5855 24.4833 18.5741C24.4425 18.645 24.399 18.7206 24.3531 18.8001C24.1834 18.7321 24.0232 18.6682 23.7961 18.5773C23.4813 18.1692 23.1561 17.6696 22.7475 17.2515C22.5367 17.0354 22.3956 16.7351 22.1608 16.5925C21.8694 16.4151 21.8165 16.0807 21.5791 15.9147C21.3175 15.7313 21.2117 15.4295 20.9885 15.2503C20.7436 15.0536 20.6255 14.7602 20.4032 14.5806C19.8738 14.1528 19.5121 13.5489 18.9154 13.1987C18.8264 12.9266 18.4735 12.8285 18.4601 12.5066C18.1521 12.367 17.9343 12.1188 17.7023 11.8855C17.3749 11.5561 16.9458 11.3396 16.6761 10.9405C16.5998 10.8278 16.4367 10.7737 16.2359 10.6422C16.4151 11.2212 16.5688 11.7182 16.7568 12.326C16.74 12.3786 16.6833 12.5532 16.6261 12.7292C16.7694 12.8517 16.8702 12.9378 16.9776 13.0298C17.1046 13.6156 17.4616 14.1922 17.343 14.8576C17.6406 14.8881 17.6412 15.2109 17.8055 15.3443C17.8874 16.0831 18.2468 16.6945 18.5029 17.428C18.4999 17.4395 18.4745 17.5394 18.4503 17.6343C18.5121 17.9144 18.7834 18.0756 18.7886 18.3992C18.7921 18.634 18.9348 18.9002 19.0912 19.0904C19.282 19.3224 19.374 19.6089 19.3995 19.8535C19.4312 20.1573 19.6458 20.312 19.737 20.5835C19.7198 20.6518 19.6945 20.7518 19.6595 20.8904C20.0455 21.3732 20.2874 21.9596 20.6008 22.5255C20.5678 22.6198 20.5345 22.7139 20.4918 22.8354L20.8418 23.3673C20.7211 23.3521 20.6654 23.3449 20.5492 23.33C20.7501 23.5792 20.7086 23.8245 20.6036 24.0966C20.5372 24.1008 20.4605 24.1057 20.3955 24.1101C20.2992 24.5474 20.2003 24.9965 20.1101 25.4063C19.9465 25.4576 19.8223 25.4962 19.662 25.5464C19.6193 25.5208 19.5391 25.4726 19.4591 25.4248L19.3375 25.5047C19.3549 25.571 19.3741 25.6439 19.4033 25.755C19.1119 25.9792 18.7895 25.9312 18.4677 25.848C18.2682 25.6339 18.2682 25.6339 17.8597 25.6675C17.996 25.738 18.0477 25.7648 18.128 25.8066C18.0891 25.8493 18.0452 25.8981 17.9838 25.9655C17.8898 25.8608 17.8127 25.7747 17.717 25.6682C17.6924 25.7426 17.6758 25.792 17.6636 25.8286C17.2773 25.8114 16.89 25.7941 16.4561 25.7746L16.3042 25.5437C16.2774 25.6351 16.2616 25.6885 16.2404 25.7611C16.18 25.7142 16.1232 25.6697 16.0482 25.6112L15.8285 25.7557C15.7169 25.7327 15.636 25.7158 15.5546 25.6991C15.5744 25.5244 15.4724 25.3293 15.6426 25.1778C15.3025 25.1641 15.3427 25.4433 15.2654 25.6887C15.1889 25.5918 15.1292 25.5164 15.0667 25.4371C14.7685 25.4484 14.4719 25.3974 14.1732 25.5817C13.9239 25.7356 13.6436 25.5722 13.3841 25.3944C13.3567 25.4691 13.3401 25.5143 13.3073 25.6046C13.228 25.5238 13.1578 25.4519 13.0684 25.3603C13.0461 25.3798 13.0131 25.4089 12.9149 25.4948C12.715 25.4876 12.4263 25.4233 12.1636 25.4802C11.7896 25.5613 11.4754 25.3009 11.0938 25.3903C10.7591 25.4688 10.3976 25.4417 10.0362 25.3848C9.54332 25.3073 9.0322 25.347 8.49253 25.3358L8.67974 25.6203C8.74446 25.611 8.83763 25.5977 8.96486 25.5797C8.96717 25.6885 8.96907 25.7837 8.97173 25.8976C9.13551 25.9787 9.30155 26.0824 9.48206 26.1438C9.63316 26.1953 9.7644 26.3745 9.95594 26.2476C10.0335 26.4782 10.2488 26.4881 10.4374 26.5292C10.4254 26.5867 10.4171 26.6271 10.4105 26.6586C11.101 26.8111 11.7036 27.15 12.2862 27.5354C12.5096 27.5759 12.7329 27.6165 12.954 27.6569L13.0672 27.8289C13.3816 27.9502 13.6552 28.0556 13.9665 28.1754C13.9005 28.3046 13.8538 28.3965 13.7935 28.5149C13.9759 28.6078 14.1475 28.6949 14.3064 28.7757C14.4195 28.6539 14.5173 28.549 14.6139 28.4448C15.0233 28.6183 15.399 28.7776 15.8794 28.9813C15.6482 29.0677 15.5265 28.9984 15.3876 28.9848C15.3965 29.2723 15.6486 29.1724 15.7838 29.2437C15.7805 29.3186 15.7766 29.3931 15.7689 29.5528C15.8824 29.5141 15.9887 29.478 16.0949 29.4419C16.0866 29.4852 16.0783 29.5285 16.0702 29.5718C16.111 29.4891 16.1517 29.4064 16.1968 29.3154C16.3559 29.4081 16.4872 29.4847 16.6166 29.5604C16.6058 29.6389 16.5977 29.6985 16.5887 29.7627C16.6424 29.7761 16.6994 29.7907 16.7732 29.8092C16.897 29.6899 17.0288 29.5634 17.1487 29.4477C17.6687 29.7033 18.1633 29.9468 18.6581 30.1901C18.6531 30.2135 18.6484 30.2371 18.6435 30.2602C18.5843 30.2577 18.5253 30.2554 18.379 30.2494C18.5995 30.4797 18.7814 30.6696 18.9928 30.8903C18.8325 31.08 18.6843 31.2552 18.4689 31.5095C18.4678 31.5208 18.4575 31.6434 18.4443 31.799C17.7629 31.5 17.0692 31.3685 16.3969 31.1915C15.4665 30.9464 14.6074 30.5333 13.7029 30.2325C12.7613 29.9193 11.8607 29.4809 10.941 29.1001C10.4175 28.8831 9.88678 28.6822 9.36749 28.455C8.6386 28.1359 7.90315 27.8272 7.20025 27.4577C6.89059 27.2948 6.53969 27.2537 6.24653 27.0243C5.99488 26.8274 5.64098 26.7601 5.33094 26.639C4.53928 26.3293 3.75762 25.9967 2.9315 25.7767C2.39347 25.6338 1.87389 25.4199 1.26887 25.2112L0.861245 24.5916C1.00838 24.488 1.13186 24.3231 1.40503 24.38C1.33051 24.2336 1.26074 24.0969 1.19484 23.9677C1.45661 23.44 1.88614 23.0961 2.4633 22.8113C2.53013 22.8371 2.66384 22.8887 2.90894 22.9828C2.93712 23.0024 3.07715 23.0997 3.2452 23.2168C3.36929 23.0512 3.4625 22.9269 3.5503 22.8097C3.82715 22.8249 4.10576 22.8212 4.37791 22.8608C4.60986 22.8943 4.87871 22.7052 5.05641 23.0536C5.08288 22.9268 5.09107 22.8863 5.10681 22.8108C5.35747 22.9904 5.69693 22.6807 5.918 23.0068C6.01607 22.9578 6.10405 22.9138 6.20817 22.8616C6.24621 22.8979 6.28799 22.9378 6.33424 22.982C7.10532 22.8108 7.88385 22.9337 8.6767 23.0019C8.71472 22.9769 8.76569 22.9155 8.81873 22.9133C9.03309 22.9048 9.30338 22.8346 9.45036 22.9358C9.68898 23.1005 10.0166 22.8677 10.1894 23.1793C10.3197 23.1039 10.4405 23.0339 10.5699 22.9589C10.629 23.0026 10.6903 23.0482 10.7653 23.1038C10.8281 23.067 10.8969 23.0267 11.0034 22.9648C11.2012 23.0111 11.4312 23.0647 11.7033 23.1283C11.623 23.2598 11.5756 23.3374 11.5097 23.4448C11.6974 23.4462 11.8666 23.4474 12.036 23.4485C12.0666 23.3823 12.0968 23.3164 12.1449 23.2109C12.2485 23.261 12.339 23.3293 12.4378 23.345C12.5242 23.3587 12.6202 23.3131 12.7104 23.294C12.7344 23.2349 12.7634 23.1632 12.8128 23.0416C12.9202 23.0943 13.012 23.1397 13.1666 23.2157C13.1786 23.2539 13.2184 23.3793 13.2635 23.5219L13.4737 23.3836C13.6843 23.4983 13.8305 23.5801 14.0904 23.4785C14.5323 23.3058 15.0314 23.3245 15.5074 23.2754C15.5804 23.2677 15.6634 23.3587 15.7407 23.4037C15.7599 23.3406 15.776 23.2883 15.7743 23.2936C16.0398 23.3272 16.2922 23.3235 16.5195 23.3975C16.7505 23.4725 16.957 23.6243 17.2289 23.7725C17.3727 23.7441 17.3306 23.6154 17.0883 23.3719C17.3532 23.4576 17.4422 23.4864 17.55 23.5214C17.5603 23.6079 17.5709 23.6969 17.591 23.8663C17.6978 23.7158 17.7696 23.6149 17.8505 23.5009C17.9011 23.5041 17.9596 23.5073 18.055 23.513C18.0683 23.4347 18.1286 23.3071 18.0909 23.2626C17.9065 23.0454 17.9025 22.7927 17.8815 22.5582C17.532 22.244 17.5226 21.7733 17.3303 21.3947C17.1181 20.9783 16.924 20.5439 16.7977 20.0961C16.6764 19.6672 16.5643 19.2254 16.3603 18.8433C16.1436 18.4377 16.0512 17.9973 15.8677 17.5854C15.6807 17.1656 15.552 16.7152 15.4412 16.2672C15.3348 15.8354 15.1282 15.4422 15.0271 15.0043C14.9242 14.5592 14.7833 14.1071 14.6062 13.6858C14.4306 13.2683 14.3854 12.827 14.2376 12.4085C14.0904 11.9916 13.9628 11.567 13.8481 11.1398C13.7289 10.6965 13.6392 10.2453 13.5297 9.79919C13.4245 9.37045 13.3105 8.94362 13.191 8.47986C13.2223 8.32818 13.2635 8.1277 13.3043 7.92993C13.3568 7.93766 13.4165 7.94606 13.4704 7.95403C13.7028 7.82398 13.5752 7.63452 13.5653 7.49277C13.7613 7.30497 13.9445 7.12905 14.1427 6.93898C14.1734 6.94415 14.2336 6.95412 14.2894 6.96349C14.4013 6.54266 14.7539 6.57502 15.0579 6.59501C15.3649 6.61545 15.6667 6.71126 15.9919 6.77831C16.3906 7.23199 17.0812 7.39916 17.3029 8.07015C17.39 8.03552 17.4437 8.01406 17.5337 7.97801C17.7858 8.25152 18.0523 8.54092 18.354 8.8685C18.3683 8.86425 18.4389 8.84313 18.4913 8.8275C18.7607 9.06293 19.0282 9.28515 19.2807 9.52322C19.38 9.61685 19.5082 9.74258 19.5143 9.85958C19.5301 10.157 19.6489 10.3355 19.9143 10.4676C20.0363 10.5283 20.1081 10.6887 20.2706 10.7532L20.0029 10.3463C20.0847 10.3347 20.139 10.3181 20.144 10.3279C20.298 10.6158 20.5661 10.7984 20.808 10.9887C21.0118 11.1489 21.2001 11.356 21.2144 11.5605C21.233 11.8257 21.4249 11.9388 21.5069 12.2504C21.5631 12.1033 21.5795 12.0606 21.596 12.0173C21.996 12.1949 22.1354 12.2871 22.1751 12.6072C22.2068 12.8633 22.387 12.9753 22.5492 13.127C22.4742 12.979 22.3992 12.831 22.2702 12.5765C22.5623 12.8652 22.7674 13.0679 23.0567 13.354C22.887 12.2906 22.9984 11.3364 23.0047 10.3819C23.011 9.40956 23.0907 8.90685 23.3463 8.14233C23.3926 8.00339 23.3498 7.83664 23.3862 7.69221C23.4497 7.44227 23.5641 7.20399 23.6172 6.95238C23.6658 6.72141 23.6263 6.4696 23.6875 6.24355C23.8497 5.64537 24.1107 5.07679 24.2339 4.46449C24.246 4.4045 24.3545 4.36363 24.4256 4.30839C24.4228 4.20509 24.384 4.07818 24.4224 3.98203C24.6101 3.51215 24.7883 3.03432 25.0293 2.59151C25.2208 2.23955 25.3835 1.87251 25.6068 1.52957C25.8273 1.19075 26.1321 0.959682 26.3819 0.670542C26.6403 0.37153 27.0392 0.233699 27.4724 0.169724C27.3976 0.743363 28.0242 0.825294 28.2452 1.20923C28.1443 1.02647 28.0433 0.843523 27.9423 0.660578C27.971 0.644166 28 0.627797 28.0287 0.611338L28.2546 0.954729C28.3229 1.05857 28.3896 1.16357 28.4598 1.26587C28.539 1.38036 28.5888 1.53155 28.7701 1.52375C28.6595 1.68866 28.9213 1.69549 28.8961 1.80499C28.8512 2.00163 29.145 1.88764 29.1215 2.07811C29.1087 2.18326 29.1645 2.30545 29.215 2.40717C29.2775 2.53279 29.3667 2.64505 29.4371 2.75215C29.3707 2.83925 29.3245 2.8999 29.2513 2.99577C29.3635 2.96713 29.4345 2.94907 29.5333 2.92361C29.5742 2.97545 29.6226 3.03655 29.7016 3.13667C29.6677 3.30182 29.6275 3.49753 29.5913 3.67341C29.6567 3.76204 29.704 3.82602 29.7472 3.88462C29.8382 3.86312 29.9124 3.84567 30.0149 3.82134C29.9548 3.92104 29.9089 3.99736 29.863 4.07387L29.9378 4.18763C30.025 4.17522 30.1184 4.1621 30.2212 4.14731C30.3205 4.5096 30.3646 4.8791 30.5869 5.19999C30.6874 5.34536 30.6785 5.56658 30.7235 5.77385C30.7199 5.77242 30.7547 5.78438 30.808 5.80279C30.91 6.10989 31.0158 6.42814 31.146 6.82029C30.9805 6.76808 30.87 6.7331 30.7672 6.70073C30.8529 6.88146 30.9377 6.98264 31.1149 7.10999C31.1137 7.12962 31.1146 7.14952 31.1113 7.16909C31.104 7.20982 31.0949 7.25017 31.0849 7.29765C31.1255 7.3042 31.166 7.30976 31.206 7.31746C31.2254 7.32135 31.2442 7.32916 31.2646 7.33584C31.31 7.50171 31.3556 7.66881 31.4155 7.88832L30.9594 8.18842C30.9633 8.21932 30.9675 8.25011 30.9718 8.28107C31.0651 8.28076 31.1584 8.28014 31.2912 8.27974C31.3151 8.23456 31.3573 8.15443 31.4379 8.00225C31.5364 8.28137 31.617 8.50908 31.695 8.73034C31.6414 8.78556 31.6009 8.82683 31.559 8.86997C31.9084 9.0149 31.8915 9.30156 31.8689 9.59661C31.8618 9.69069 31.8748 9.79085 31.9009 9.88172C31.9589 10.0856 32.0309 10.2854 32.1112 10.528C32.1063 10.5337 32.0691 10.5775 31.9925 10.6682C32.0624 10.7602 32.1461 10.8706 32.2794 11.0459C32.2847 11.0001 32.2626 11.0572 32.2747 11.1054C32.3722 11.4959 32.5159 11.8743 32.5811 12.2734C32.5874 12.311 32.6231 12.3426 32.6362 12.38C32.7214 12.6238 32.5141 12.8949 32.6968 13.1265C32.8581 13.3311 32.7756 13.5795 32.8377 13.8019C32.9046 14.0411 32.9491 14.2865 32.9992 14.53C33.0148 14.605 33.0024 14.6878 33.0289 14.7574C33.0573 14.833 33.1159 14.8971 33.1821 14.9978C33.15 15.0881 33.1091 15.2042 33.0786 15.29L33.3101 15.6419C33.2288 15.9933 33.1407 16.3475 33.392 16.6756C33.4144 16.7047 33.4376 16.7524 33.4293 16.7829C33.2887 17.2996 33.5954 17.7658 33.5892 18.2758C33.5832 18.7676 33.7407 19.2593 33.7771 19.7546C33.8255 20.4107 33.8267 21.07 33.8446 21.7282C33.8465 21.7886 33.8351 21.8571 33.8069 21.9095C33.5435 22.3995 33.2748 22.8867 33.0331 23.3289C32.7455 23.4473 32.509 23.5445 32.2051 23.6695C32.0991 23.6199 31.9251 23.5381 31.756 23.4588C31.6806 23.1105 31.5907 22.7766 31.5401 22.4367C31.4893 22.0951 31.4523 21.7472 31.4542 21.4025C31.4578 20.6478 31.2924 19.9117 31.2416 19.1645C31.2115 18.7223 31.0492 18.2883 31.1522 17.8376C30.9121 17.1217 30.8783 16.3709 30.7577 15.6345C30.7055 15.3162 30.7006 14.9863 30.5957 14.6721C30.4988 14.3826 30.4475 14.0781 30.3749 13.7805C30.1487 12.85 29.9267 11.9188 29.6935 10.9902C29.5722 10.5067 29.4399 10.0251 29.2961 9.54762C29.1511 9.06673 28.9531 8.59283 28.8325 8.11585C28.6211 7.27996 28.19 6.53819 27.9497 5.71804C27.8229 5.28495 27.5441 4.89271 27.3088 4.49693C27.0798 4.11115 26.819 3.74417 26.501 3.2608Z" fill="#004DB3"/>
</svg>
